<?xml version="1.0" encoding="UTF-8" standalone="no"?>
<!DOCTYPE svg PUBLIC "-//W3C//DTD SVG 1.1//EN" "http://www.w3.org/Graphics/SVG/1.1/DTD/svg11.dtd">
<svg xmlns="http://www.w3.org/2000/svg" version="1.1" viewBox="0.00 0.00 214.00 200.00">
<g fill="#010101">
<path d="
  M 104.67 121.82
  Q 104.60 121.94 104.56 122.06
  Q 104.48 122.25 104.49 122.45
  Q 104.69 126.69 104.53 131.27
  Q 104.51 132.04 103.74 132.07
  L 103.27 132.09
  Q 102.15 132.13 102.15 131.02
  L 102.16 116.62
  Q 102.16 115.08 103.23 116.20
  L 112.79 126.22
  A 0.45 0.45 0.0 0 0 113.44 126.22
  Q 113.77 125.89 113.73 125.41
  Q 113.42 121.10 113.60 117.12
  A 1.08 1.08 0.0 0 1 114.21 116.20
  Q 114.75 115.94 115.28 116.06
  Q 116.02 116.24 116.02 117.00
  L 116.01 131.53
  Q 116.01 132.97 115.01 131.93
  L 105.25 121.74
  A 0.36 0.36 0.0 0 0 104.67 121.82
  Z"
/>
<path d="
  M 50.94 124.97
  L 50.91 130.80
  Q 50.91 132.02 49.69 132.06
  Q 49.53 132.07 49.39 132.08
  Q 48.50 132.14 48.50 131.25
  L 48.47 117.50
  Q 48.47 116.35 49.58 116.08
  Q 50.10 115.95 50.64 116.46
  A 0.89 0.83 24.1 0 1 50.91 117.10
  L 50.84 121.05
  Q 50.82 122.28 52.05 122.28
  L 56.60 122.28
  Q 57.74 122.29 57.71 121.15
  L 57.62 117.23
  A 1.14 1.14 0.0 0 1 58.57 116.08
  L 58.92 116.02
  Q 59.99 115.84 59.99 116.92
  L 59.99 131.27
  Q 59.99 132.04 59.23 132.05
  L 58.23 132.06
  A 0.58 0.58 0.0 0 1 57.64 131.48
  L 57.66 125.06
  A 0.38 0.38 0.0 0 0 57.28 124.68
  L 51.28 124.64
  A 0.33 0.33 0.0 0 0 50.94 124.97
  Z"
/>
<path d="
  M 80.54 129.95
  L 80.92 129.96
  Q 84.34 130.00 84.37 126.58
  L 84.44 117.41
  Q 84.45 116.28 85.59 116.19
  L 85.95 116.16
  A 0.80 0.79 88.4 0 1 86.80 116.97
  Q 86.75 120.94 86.83 125.18
  C 86.90 128.70 85.52 131.75 81.69 132.13
  C 77.52 132.54 75.05 129.65 75.18 125.62
  Q 75.33 121.18 75.21 117.09
  Q 75.18 116.21 76.06 116.22
  L 76.91 116.22
  A 0.70 0.69 0.0 0 1 77.61 116.91
  L 77.66 127.04
  Q 77.67 129.92 80.54 129.95
  Z"
/>
<path d="
  M 131.17 116.77
  A 0.52 0.52 0.0 0 1 131.69 116.25
  L 135.47 116.24
  A 7.74 7.58 -0.1 0 1 143.22 123.81
  L 143.22 124.39
  A 7.74 7.58 -0.1 0 1 135.49 131.98
  L 131.71 131.99
  A 0.52 0.52 0.0 0 1 131.19 131.47
  L 131.17 116.77
  Z
  M 133.52 119.23
  L 133.48 128.99
  A 0.72 0.72 0.0 0 0 134.20 129.71
  L 135.27 129.71
  A 5.53 5.35 0.2 0 0 140.82 124.38
  L 140.82 123.88
  A 5.53 5.35 0.2 0 0 135.31 118.51
  L 134.24 118.51
  A 0.72 0.72 0.0 0 0 133.52 119.23
  Z"
/>
<path d="
  M 160.72 122.23
  L 165.86 122.21
  A 0.47 0.47 0.0 0 1 166.33 122.66
  L 166.39 123.97
  A 0.47 0.47 0.0 0 1 165.92 124.46
  L 160.72 124.49
  A 0.47 0.47 0.0 0 0 160.25 124.96
  L 160.24 129.25
  A 0.47 0.47 0.0 0 0 160.71 129.72
  L 166.06 129.73
  A 0.47 0.47 0.0 0 1 166.53 130.21
  L 166.51 131.54
  A 0.47 0.47 0.0 0 1 166.04 132.00
  L 158.33 132.05
  A 0.47 0.47 0.0 0 1 157.86 131.58
  L 157.87 116.73
  A 0.47 0.47 0.0 0 1 158.34 116.26
  L 166.03 116.19
  A 0.47 0.47 0.0 0 1 166.51 116.66
  L 166.53 118.03
  A 0.47 0.47 0.0 0 1 166.06 118.51
  L 160.72 118.52
  A 0.47 0.47 0.0 0 0 160.25 118.99
  L 160.25 121.76
  A 0.47 0.47 0.0 0 0 160.72 122.23
  Z"
/>
<path d="
  M 183.60 126.60
  Q 183.30 127.86 183.87 130.43
  A 1.28 1.27 68.3 0 1 183.29 131.80
  Q 182.48 132.29 181.57 131.94
  Q 181.05 131.75 181.06 131.20
  L 181.16 117.05
  A 0.76 0.75 86.1 0 1 181.81 116.30
  C 184.02 115.98 187.51 116.18 189.07 118.12
  C 191.48 121.13 189.29 123.44 187.13 125.44
  A 0.44 0.43 -39.8 0 0 187.07 126.02
  L 190.74 131.20
  Q 191.35 132.05 190.30 132.07
  L 189.51 132.07
  Q 188.29 132.09 187.65 131.05
  L 184.79 126.41
  Q 183.97 125.06 183.60 126.60
  Z
  M 183.57 119.33
  L 183.55 122.57
  A 0.85 0.85 0.0 0 0 184.39 123.42
  L 184.57 123.42
  A 3.05 2.29 0.4 0 0 187.64 121.15
  L 187.64 120.79
  A 3.05 2.29 0.4 0 0 184.61 118.48
  L 184.43 118.48
  A 0.85 0.85 0.0 0 0 183.57 119.33
  Z"
/>
<path d="
  M 30.97 119.26
  L 31.02 131.08
  A 0.86 0.85 -0.7 0 1 30.17 131.94
  L 29.81 131.94
  Q 28.94 131.94 28.94 131.06
  L 28.92 119.23
  Q 28.92 118.55 28.24 118.46
  L 25.83 118.16
  Q 25.29 118.10 25.25 117.56
  L 25.22 117.12
  A 0.64 0.64 0.0 0 1 25.87 116.43
  L 33.87 116.50
  Q 34.41 116.50 34.63 117.00
  Q 34.79 117.35 34.68 117.68
  Q 34.55 118.11 34.10 118.19
  L 31.48 118.66
  Q 30.97 118.75 30.97 119.26
  Z"
/>
</g>
</svg>
