<?xml version="1.0" encoding="UTF-8" standalone="no"?>
<!DOCTYPE svg PUBLIC "-//W3C//DTD SVG 1.1//EN" "http://www.w3.org/Graphics/SVG/1.1/DTD/svg11.dtd">
<svg xmlns="http://www.w3.org/2000/svg" version="1.1" viewBox="0.00 0.00 431.00 402.00">
<g stroke-width="2.00" fill="none" stroke-linecap="butt">
<path stroke="#808080" vector-effect="non-scaling-stroke" d="
  M 197.93 198.82
  Q 202.14 193.67 205.29 188.68
  A 1.17 1.17 0.0 0 0 204.43 186.89
  Q 196.74 186.03 187.93 187.34
  A 0.36 0.35 11.0 0 1 187.57 186.81
  L 211.18 147.20
  A 1.26 1.22 43.9 0 0 211.13 145.88
  L 181.05 100.88
  A 1.83 1.83 0.0 0 0 178.10 100.76
  Q 173.08 107.09 168.63 113.74
  Q 163.89 120.83 159.30 126.85
  C 152.00 136.42 145.02 146.72 138.04 156.34
  C 133.21 163.01 128.61 170.10 123.48 176.49
  Q 121.10 179.45 118.84 182.79
  C 115.18 188.18 111.45 193.48 107.33 198.46
  Q 101.10 205.98 95.16 213.46
  A 1.40 1.39 -69.0 0 0 96.16 215.72
  Q 98.34 215.87 100.50 215.86
  Q 215.28 215.38 332.94 214.74
  A 0.90 0.90 0.0 0 0 333.80 213.58
  Q 333.22 211.64 332.18 210.05
  Q 327.77 203.36 323.32 196.70
  Q 318.88 190.06 314.25 183.55
  Q 309.63 177.08 305.39 170.33
  C 301.93 164.81 297.77 159.94 294.57 154.36
  C 292.64 151.01 290.18 148.08 288.07 144.84
  Q 285.74 141.27 283.08 137.75
  C 280.44 134.23 278.33 130.18 275.76 126.54
  Q 272.52 121.94 269.42 117.13
  C 266.84 113.12 263.07 108.69 260.36 104.05
  A 1.55 1.55 0.0 0 0 257.82 103.86
  C 253.19 109.63 249.46 115.77 245.02 121.64
  Q 242.61 124.82 239.99 128.55
  Q 238.69 130.42 237.44 132.18
  Q 231.84 140.08 226.03 148.05
  Q 219.05 157.59 212.13 167.92
  Q 209.62 171.66 206.61 175.28
  Q 205.48 176.63 205.57 178.44
  A 0.75 0.75 0.0 0 0 206.31 179.16
  L 220.61 179.51
  Q 221.34 179.53 221.07 180.22
  Q 221.02 180.36 220.89 180.47
  Q 211.90 187.91 202.61 195.84
  Q 200.60 197.55 198.38 199.28
  Q 196.09 201.08 197.93 198.82"
/>
<path stroke="#808080" vector-effect="non-scaling-stroke" d="
  M 228.77 254.33
  Q 228.77 255.47 227.98 254.65
  L 206.86 232.64
  Q 205.96 231.70 205.96 233.00
  L 205.93 264.59
  Q 205.93 265.25 206.59 265.25
  L 210.00 265.24
  Q 210.74 265.24 210.73 264.50
  L 210.64 244.18
  Q 210.64 243.09 211.40 243.88
  Q 221.91 254.93 232.83 266.32
  Q 233.02 266.52 233.32 266.39
  A 0.36 0.34 78.5 0 0 233.52 266.07
  L 233.52 234.47
  Q 233.52 233.66 232.72 233.65
  L 229.58 233.60
  A 0.83 0.82 0.3 0 0 228.74 234.42
  L 228.77 254.33"
/>
<path stroke="#808080" vector-effect="non-scaling-stroke" d="
  M 162.16 261.18
  C 158.79 260.82 156.50 258.25 156.49 254.92
  Q 156.44 244.41 156.27 234.20
  Q 156.26 233.60 155.67 233.61
  L 152.07 233.67
  Q 151.52 233.69 151.53 234.24
  Q 151.62 242.58 151.47 251.80
  C 151.38 257.33 152.51 261.72 157.66 264.39
  Q 162.52 266.91 167.37 264.97
  Q 174.59 262.08 174.72 253.70
  Q 174.87 243.99 174.70 234.23
  Q 174.69 233.53 174.00 233.57
  L 170.71 233.77
  Q 170.06 233.80 170.06 234.45
  Q 170.05 242.51 170.16 251.94
  C 170.22 257.15 168.44 261.86 162.16 261.18"
/>
<path stroke="#808080" vector-effect="non-scaling-stroke" d="
  M 62.75 238.64
  A 0.60 0.60 0.0 0 1 63.31 238.04
  L 69.21 237.61
  A 0.60 0.60 0.0 0 0 69.77 237.06
  L 70.00 234.59
  A 0.60 0.60 0.0 0 0 69.41 233.93
  L 51.31 233.66
  A 0.60 0.60 0.0 0 0 50.70 234.27
  L 50.73 237.63
  A 0.60 0.60 0.0 0 0 51.33 238.22
  L 57.45 238.23
  A 0.60 0.60 0.0 0 1 58.05 238.83
  L 57.97 264.68
  A 0.60 0.60 0.0 0 0 58.57 265.28
  L 62.19 265.27
  A 0.60 0.60 0.0 0 0 62.79 264.67
  L 62.75 238.64"
/>
<path stroke="#808080" vector-effect="non-scaling-stroke" d="
  M 102.50 251.19
  A 0.71 0.71 0.0 0 1 103.21 250.48
  L 115.31 250.55
  A 0.71 0.71 0.0 0 1 116.02 251.24
  L 116.34 264.55
  A 0.71 0.71 0.0 0 0 117.05 265.24
  L 119.86 265.26
  A 0.71 0.71 0.0 0 0 120.57 264.55
  L 120.60 234.37
  A 0.71 0.71 0.0 0 0 119.87 233.66
  L 116.73 233.75
  A 0.71 0.71 0.0 0 0 116.05 234.47
  L 116.12 245.32
  A 0.71 0.71 0.0 0 1 115.41 246.04
  L 103.23 246.01
  A 0.71 0.71 0.0 0 1 102.52 245.31
  L 102.45 234.33
  A 0.71 0.71 0.0 0 0 101.71 233.62
  L 98.44 233.74
  A 0.71 0.71 0.0 0 0 97.76 234.45
  L 98.03 264.45
  A 0.71 0.71 0.0 0 0 98.71 265.16
  L 101.68 265.28
  A 0.71 0.71 0.0 0 0 102.41 264.57
  L 102.50 251.19"
/>
<path stroke="#808080" vector-effect="non-scaling-stroke" d="
  M 264.22 234.03
  L 264.28 264.89
  A 0.32 0.32 0.0 0 0 264.60 265.21
  L 272.89 265.20
  A 15.57 14.83 -0.1 0 0 288.43 250.34
  L 288.43 248.50
  A 15.57 14.83 -0.1 0 0 272.83 233.70
  L 264.54 233.71
  A 0.32 0.32 0.0 0 0 264.22 234.03"
/>
<path stroke="#808080" vector-effect="non-scaling-stroke" d="
  M 322.73 238.62
  A 0.49 0.49 0.0 0 1 323.22 238.13
  L 334.80 238.19
  A 0.49 0.49 0.0 0 0 335.29 237.72
  L 335.43 234.24
  A 0.49 0.49 0.0 0 0 334.94 233.73
  L 318.52 233.69
  A 0.49 0.49 0.0 0 0 318.03 234.18
  L 318.02 264.78
  A 0.49 0.49 0.0 0 0 318.51 265.27
  L 334.91 265.23
  A 0.49 0.49 0.0 0 0 335.40 264.75
  L 335.43 261.23
  A 0.49 0.49 0.0 0 0 334.94 260.73
  L 323.23 260.72
  A 0.49 0.49 0.0 0 1 322.74 260.23
  L 322.75 250.53
  A 0.49 0.49 0.0 0 1 323.23 250.04
  L 334.52 249.92
  A 0.49 0.49 0.0 0 0 335.00 249.43
  L 335.02 246.31
  A 0.49 0.49 0.0 0 0 334.53 245.82
  L 323.23 245.78
  A 0.49 0.49 0.0 0 1 322.74 245.29
  L 322.73 238.62"
/>
<path stroke="#808080" vector-effect="non-scaling-stroke" d="
  M 369.73 253.23
  Q 369.73 251.10 370.94 252.86
  L 378.93 264.45
  Q 379.54 265.33 380.60 265.31
  L 384.34 265.25
  Q 385.41 265.23 384.77 264.37
  L 376.06 252.51
  Q 375.66 251.97 376.28 251.71
  C 379.53 250.35 381.77 248.25 382.41 244.74
  C 383.38 239.40 380.05 234.90 374.74 234.14
  Q 370.39 233.51 365.47 233.70
  Q 364.93 233.72 364.94 234.26
  L 364.98 264.75
  Q 364.98 265.26 365.50 265.26
  L 369.25 265.25
  Q 369.76 265.25 369.76 264.75
  L 369.73 253.23"
/>
<path stroke="#808080" vector-effect="non-scaling-stroke" d="
  M 190.84 285.56
  A 1.04 1.04 0.0 0 1 192.56 286.19
  Q 192.78 287.71 194.36 287.38
  A 0.98 0.98 0.0 0 0 194.99 285.90
  Q 191.92 281.07 188.83 284.92
  Q 187.01 287.19 188.81 289.64
  C 189.55 290.64 190.96 290.92 192.02 291.50
  Q 192.53 291.79 192.70 292.35
  Q 193.11 293.76 192.52 295.11
  A 1.07 1.07 0.0 0 1 190.71 295.37
  Q 190.24 294.79 189.98 294.09
  Q 189.74 293.45 189.06 293.34
  Q 188.62 293.27 188.28 293.55
  Q 187.77 293.99 187.94 294.64
  C 189.00 298.56 194.56 298.78 194.81 294.16
  Q 194.90 292.48 194.50 291.06
  Q 194.35 290.52 193.86 290.26
  Q 192.64 289.59 191.34 288.93
  C 189.97 288.24 189.69 286.58 190.84 285.56"
/>
<path stroke="#808080" vector-effect="non-scaling-stroke" d="
  M 199.13 291.98
  Q 203.79 291.92 202.92 286.18
  Q 202.62 284.24 200.74 283.67
  Q 199.29 283.22 197.60 283.33
  A 1.11 1.11 0.0 0 0 196.55 284.44
  L 196.50 296.72
  A 0.93 0.93 0.0 0 0 197.29 297.64
  Q 197.68 297.70 198.06 297.61
  Q 198.51 297.49 198.51 297.02
  L 198.54 292.58
  Q 198.54 291.99 199.13 291.98"
/>
<path stroke="#808080" vector-effect="non-scaling-stroke" d="
  M 211.0235 286.5718
  A 3.18 3.18 0.0 0 0 207.8546 283.3807
  L 207.4946 283.3794
  A 3.18 3.18 0.0 0 0 204.3036 286.5483
  L 204.2765 294.3082
  A 3.18 3.18 0.0 0 0 207.4454 297.4993
  L 207.8054 297.5006
  A 3.18 3.18 0.0 0 0 210.9964 294.3317
  L 211.0235 286.5718"
/>
<path stroke="#808080" vector-effect="non-scaling-stroke" d="
  M 215.48 291.57
  Q 216.33 291.95 216.55 292.80
  Q 217.13 294.97 218.02 297.23
  Q 218.34 298.02 219.13 297.71
  L 219.55 297.55
  Q 220.08 297.35 219.89 296.82
  L 218.14 291.88
  Q 217.94 291.30 218.36 290.86
  Q 220.19 288.88 219.38 285.92
  Q 219.16 285.09 220.02 285.17
  L 221.01 285.26
  Q 221.91 285.34 221.90 286.26
  L 221.80 296.71
  Q 221.79 297.39 222.46 297.53
  L 223.22 297.69
  Q 224.02 297.85 224.02 297.03
  L 223.98 285.92
  Q 223.97 285.56 224.33 285.49
  L 225.98 285.19
  Q 226.50 285.10 226.48 284.56
  L 226.47 284.28
  Q 226.43 283.36 225.51 283.38
  L 220.72 283.47
  A 1.46 1.45 -70.5 0 0 219.62 284.00
  L 219.21 284.49
  Q 218.83 284.94 218.40 284.53
  Q 216.38 282.63 213.21 283.63
  Q 212.76 283.77 212.76 284.25
  L 212.79 296.72
  A 0.87 0.86 10.2 0 0 213.36 297.53
  Q 213.68 297.65 214.02 297.63
  Q 214.91 297.56 214.89 296.66
  L 214.80 292.02
  A 0.49 0.48 -78.1 0 1 215.48 291.57"
/>
<path stroke="#808080" vector-effect="non-scaling-stroke" d="
  M 129.31 292.16
  A 0.27 0.27 0.0 0 0 129.57 292.41
  L 180.86 294.74
  A 0.27 0.27 0.0 0 0 181.14 294.47
  L 181.23 289.12
  A 0.27 0.27 0.0 0 0 180.94 288.84
  L 129.53 291.30
  A 0.27 0.27 0.0 0 0 129.27 291.59
  L 129.31 292.16"
/>
<path stroke="#808080" vector-effect="non-scaling-stroke" d="
  M 282.92 291.57
  A 0.27 0.27 0.0 0 0 282.67 291.29
  L 231.05 288.85
  A 0.27 0.27 0.0 0 0 230.77 289.13
  L 230.94 294.49
  A 0.27 0.27 0.0 0 0 231.22 294.75
  L 282.63 292.38
  A 0.27 0.27 0.0 0 0 282.89 292.13
  L 282.92 291.57"
/>
<path stroke="#808080" vector-effect="non-scaling-stroke" d="
  M 178.44 139.93
  Q 178.49 140.53 178.25 141.09
  Q 175.27 148.17 173.61 154.33
  Q 172.97 156.69 174.76 155.02
  L 191.11 139.85
  A 1.11 1.09 38.4 0 1 192.41 139.71
  Q 195.97 141.80 199.94 143.57
  Q 200.86 143.97 200.30 143.14
  L 181.48 115.16
  A 0.58 0.58 0.0 0 0 180.53 115.13
  Q 179.01 117.19 177.14 119.03
  C 174.08 122.05 171.12 125.68 168.80 129.12
  Q 157.03 146.52 145.12 162.67
  Q 143.02 165.53 145.91 163.47
  Q 151.65 159.39 157.81 154.63
  C 160.45 152.60 163.37 151.16 165.84 148.93
  C 169.64 145.52 173.95 142.77 177.99 139.73
  A 0.28 0.28 0.0 0 1 178.44 139.93"
/>
<path stroke="#808080" vector-effect="non-scaling-stroke" d="
  M 263.27 148.37
  Q 262.43 155.40 263.07 162.75
  C 263.46 167.21 262.77 171.54 263.74 176.07
  A 0.34 0.34 0.0 0 0 264.31 176.24
  Q 264.65 175.91 264.84 175.43
  Q 267.34 168.98 268.84 162.60
  C 269.98 157.72 272.29 153.36 272.78 148.26
  A 0.57 0.57 0.0 0 1 273.69 147.86
  L 284.65 156.05
  A 0.29 0.29 0.0 0 0 285.09 155.70
  Q 281.81 148.51 279.00 144.47
  Q 271.67 133.92 267.10 125.81
  Q 265.67 123.26 263.72 121.41
  Q 263.24 120.94 262.88 121.51
  Q 257.93 129.23 253.50 137.74
  C 250.20 144.05 246.58 149.76 243.36 155.92
  A 0.62 0.61 -81.8 0 0 244.02 156.81
  Q 244.89 156.65 245.68 156.17
  Q 253.72 151.33 262.66 147.90
  Q 263.35 147.64 263.27 148.37"
/>
<path stroke="#808080" vector-effect="non-scaling-stroke" d="
  M 173.67 128.86
  C 174.91 126.13 177.21 123.13 177.84 120.31
  Q 178.04 119.43 177.44 120.10
  C 175.75 121.96 171.93 126.12 172.43 128.72
  Q 172.82 130.73 173.67 128.86"
/>
<path stroke="#808080" vector-effect="non-scaling-stroke" d="
  M 261.61 130.76
  A 0.30 0.30 0.0 0 0 261.04 130.59
  L 255.18 142.18
  A 0.30 0.30 0.0 0 0 255.63 142.55
  L 260.62 138.58
  A 0.30 0.30 0.0 0 0 260.73 138.38
  L 261.61 130.76"
/>
<path stroke="#808080" vector-effect="non-scaling-stroke" d="
  M 269.00 238.50
  L 268.88 260.36
  A 0.31 0.31 0.0 0 0 269.19 260.67
  L 272.52 260.69
  A 11.00 10.42 0.3 0 0 283.58 250.33
  L 283.58 248.69
  A 11.00 10.42 0.3 0 0 272.64 238.21
  L 269.31 238.19
  A 0.31 0.31 0.0 0 0 269.00 238.50"
/>
<path stroke="#808080" vector-effect="non-scaling-stroke" d="
  M 369.73 238.59
  L 369.73 247.71
  A 0.36 0.36 0.0 0 0 370.09 248.07
  L 372.47 248.07
  A 5.36 4.23 0.0 0 0 377.83 243.84
  L 377.83 242.46
  A 5.36 4.23 -0.0 0 0 372.47 238.23
  L 370.09 238.23
  A 0.36 0.36 0.0 0 0 369.73 238.59"
/>
<path stroke="#808080" vector-effect="non-scaling-stroke" d="
  M 198.53 285.65
  L 198.53 289.69
  A 0.49 0.49 0.0 0 0 199.02 290.18
  L 199.18 290.18
  A 2.15 2.01 89.9 0 0 201.19 288.03
  L 201.19 287.31
  A 2.15 2.01 89.9 0 0 199.18 285.16
  L 199.02 285.16
  A 0.49 0.49 0.0 0 0 198.53 285.65"
/>
<path stroke="#808080" vector-effect="non-scaling-stroke" d="
  M 208.9676 286.5292
  A 1.24 1.24 0.0 0 0 207.7363 285.2805
  L 207.6163 285.2797
  A 1.24 1.24 0.0 0 0 206.3677 286.5110
  L 206.3124 294.4308
  A 1.24 1.24 0.0 0 0 207.5437 295.6795
  L 207.6637 295.6803
  A 1.24 1.24 0.0 0 0 208.9123 294.4490
  L 208.9676 286.5292"
/>
<path stroke="#808080" vector-effect="non-scaling-stroke" d="
  M 216.1527 289.9400
  A 2.42 1.43 89.7 0 0 217.5700 287.5125
  A 2.42 1.43 89.7 0 0 216.1273 285.1000
  A 2.42 1.43 89.7 0 0 214.7100 287.5275
  A 2.42 1.43 89.7 0 0 216.1527 289.9400"
/>
</g>
<g fill="#ffffff">
<path d="
  M 0.00 0.00
  L 431.00 0.00
  L 431.00 402.00
  L 0.00 402.00
  L 0.00 0.00
  Z
  M 197.93 198.82
  Q 202.14 193.67 205.29 188.68
  A 1.17 1.17 0.0 0 0 204.43 186.89
  Q 196.74 186.03 187.93 187.34
  A 0.36 0.35 11.0 0 1 187.57 186.81
  L 211.18 147.20
  A 1.26 1.22 43.9 0 0 211.13 145.88
  L 181.05 100.88
  A 1.83 1.83 0.0 0 0 178.10 100.76
  Q 173.08 107.09 168.63 113.74
  Q 163.89 120.83 159.30 126.85
  C 152.00 136.42 145.02 146.72 138.04 156.34
  C 133.21 163.01 128.61 170.10 123.48 176.49
  Q 121.10 179.45 118.84 182.79
  C 115.18 188.18 111.45 193.48 107.33 198.46
  Q 101.10 205.98 95.16 213.46
  A 1.40 1.39 -69.0 0 0 96.16 215.72
  Q 98.34 215.87 100.50 215.86
  Q 215.28 215.38 332.94 214.74
  A 0.90 0.90 0.0 0 0 333.80 213.58
  Q 333.22 211.64 332.18 210.05
  Q 327.77 203.36 323.32 196.70
  Q 318.88 190.06 314.25 183.55
  Q 309.63 177.08 305.39 170.33
  C 301.93 164.81 297.77 159.94 294.57 154.36
  C 292.64 151.01 290.18 148.08 288.07 144.84
  Q 285.74 141.27 283.08 137.75
  C 280.44 134.23 278.33 130.18 275.76 126.54
  Q 272.52 121.94 269.42 117.13
  C 266.84 113.12 263.07 108.69 260.36 104.05
  A 1.55 1.55 0.0 0 0 257.82 103.86
  C 253.19 109.63 249.46 115.77 245.02 121.64
  Q 242.61 124.82 239.99 128.55
  Q 238.69 130.42 237.44 132.18
  Q 231.84 140.08 226.03 148.05
  Q 219.05 157.59 212.13 167.92
  Q 209.62 171.66 206.61 175.28
  Q 205.48 176.63 205.57 178.44
  A 0.75 0.75 0.0 0 0 206.31 179.16
  L 220.61 179.51
  Q 221.34 179.53 221.07 180.22
  Q 221.02 180.36 220.89 180.47
  Q 211.90 187.91 202.61 195.84
  Q 200.60 197.55 198.38 199.28
  Q 196.09 201.08 197.93 198.82
  Z
  M 228.77 254.33
  Q 228.77 255.47 227.98 254.65
  L 206.86 232.64
  Q 205.96 231.70 205.96 233.00
  L 205.93 264.59
  Q 205.93 265.25 206.59 265.25
  L 210.00 265.24
  Q 210.74 265.24 210.73 264.50
  L 210.64 244.18
  Q 210.64 243.09 211.40 243.88
  Q 221.91 254.93 232.83 266.32
  Q 233.02 266.52 233.32 266.39
  A 0.36 0.34 78.5 0 0 233.52 266.07
  L 233.52 234.47
  Q 233.52 233.66 232.72 233.65
  L 229.58 233.60
  A 0.83 0.82 0.3 0 0 228.74 234.42
  L 228.77 254.33
  Z
  M 162.16 261.18
  C 158.79 260.82 156.50 258.25 156.49 254.92
  Q 156.44 244.41 156.27 234.20
  Q 156.26 233.60 155.67 233.61
  L 152.07 233.67
  Q 151.52 233.69 151.53 234.24
  Q 151.62 242.58 151.47 251.80
  C 151.38 257.33 152.51 261.72 157.66 264.39
  Q 162.52 266.91 167.37 264.97
  Q 174.59 262.08 174.72 253.70
  Q 174.87 243.99 174.70 234.23
  Q 174.69 233.53 174.00 233.57
  L 170.71 233.77
  Q 170.06 233.80 170.06 234.45
  Q 170.05 242.51 170.16 251.94
  C 170.22 257.15 168.44 261.86 162.16 261.18
  Z
  M 62.75 238.64
  A 0.60 0.60 0.0 0 1 63.31 238.04
  L 69.21 237.61
  A 0.60 0.60 0.0 0 0 69.77 237.06
  L 70.00 234.59
  A 0.60 0.60 0.0 0 0 69.41 233.93
  L 51.31 233.66
  A 0.60 0.60 0.0 0 0 50.70 234.27
  L 50.73 237.63
  A 0.60 0.60 0.0 0 0 51.33 238.22
  L 57.45 238.23
  A 0.60 0.60 0.0 0 1 58.05 238.83
  L 57.97 264.68
  A 0.60 0.60 0.0 0 0 58.57 265.28
  L 62.19 265.27
  A 0.60 0.60 0.0 0 0 62.79 264.67
  L 62.75 238.64
  Z
  M 102.50 251.19
  A 0.71 0.71 0.0 0 1 103.21 250.48
  L 115.31 250.55
  A 0.71 0.71 0.0 0 1 116.02 251.24
  L 116.34 264.55
  A 0.71 0.71 0.0 0 0 117.05 265.24
  L 119.86 265.26
  A 0.71 0.71 0.0 0 0 120.57 264.55
  L 120.60 234.37
  A 0.71 0.71 0.0 0 0 119.87 233.66
  L 116.73 233.75
  A 0.71 0.71 0.0 0 0 116.05 234.47
  L 116.12 245.32
  A 0.71 0.71 0.0 0 1 115.41 246.04
  L 103.23 246.01
  A 0.71 0.71 0.0 0 1 102.52 245.31
  L 102.45 234.33
  A 0.71 0.71 0.0 0 0 101.71 233.62
  L 98.44 233.74
  A 0.71 0.71 0.0 0 0 97.76 234.45
  L 98.03 264.45
  A 0.71 0.71 0.0 0 0 98.71 265.16
  L 101.68 265.28
  A 0.71 0.71 0.0 0 0 102.41 264.57
  L 102.50 251.19
  Z
  M 264.22 234.03
  L 264.28 264.89
  A 0.32 0.32 0.0 0 0 264.60 265.21
  L 272.89 265.20
  A 15.57 14.83 -0.1 0 0 288.43 250.34
  L 288.43 248.50
  A 15.57 14.83 -0.1 0 0 272.83 233.70
  L 264.54 233.71
  A 0.32 0.32 0.0 0 0 264.22 234.03
  Z
  M 322.73 238.62
  A 0.49 0.49 0.0 0 1 323.22 238.13
  L 334.80 238.19
  A 0.49 0.49 0.0 0 0 335.29 237.72
  L 335.43 234.24
  A 0.49 0.49 0.0 0 0 334.94 233.73
  L 318.52 233.69
  A 0.49 0.49 0.0 0 0 318.03 234.18
  L 318.02 264.78
  A 0.49 0.49 0.0 0 0 318.51 265.27
  L 334.91 265.23
  A 0.49 0.49 0.0 0 0 335.40 264.75
  L 335.43 261.23
  A 0.49 0.49 0.0 0 0 334.94 260.73
  L 323.23 260.72
  A 0.49 0.49 0.0 0 1 322.74 260.23
  L 322.75 250.53
  A 0.49 0.49 0.0 0 1 323.23 250.04
  L 334.52 249.92
  A 0.49 0.49 0.0 0 0 335.00 249.43
  L 335.02 246.31
  A 0.49 0.49 0.0 0 0 334.53 245.82
  L 323.23 245.78
  A 0.49 0.49 0.0 0 1 322.74 245.29
  L 322.73 238.62
  Z
  M 369.73 253.23
  Q 369.73 251.10 370.94 252.86
  L 378.93 264.45
  Q 379.54 265.33 380.60 265.31
  L 384.34 265.25
  Q 385.41 265.23 384.77 264.37
  L 376.06 252.51
  Q 375.66 251.97 376.28 251.71
  C 379.53 250.35 381.77 248.25 382.41 244.74
  C 383.38 239.40 380.05 234.90 374.74 234.14
  Q 370.39 233.51 365.47 233.70
  Q 364.93 233.72 364.94 234.26
  L 364.98 264.75
  Q 364.98 265.26 365.50 265.26
  L 369.25 265.25
  Q 369.76 265.25 369.76 264.75
  L 369.73 253.23
  Z
  M 190.84 285.56
  A 1.04 1.04 0.0 0 1 192.56 286.19
  Q 192.78 287.71 194.36 287.38
  A 0.98 0.98 0.0 0 0 194.99 285.90
  Q 191.92 281.07 188.83 284.92
  Q 187.01 287.19 188.81 289.64
  C 189.55 290.64 190.96 290.92 192.02 291.50
  Q 192.53 291.79 192.70 292.35
  Q 193.11 293.76 192.52 295.11
  A 1.07 1.07 0.0 0 1 190.71 295.37
  Q 190.24 294.79 189.98 294.09
  Q 189.74 293.45 189.06 293.34
  Q 188.62 293.27 188.28 293.55
  Q 187.77 293.99 187.94 294.64
  C 189.00 298.56 194.56 298.78 194.81 294.16
  Q 194.90 292.48 194.50 291.06
  Q 194.35 290.52 193.86 290.26
  Q 192.64 289.59 191.34 288.93
  C 189.97 288.24 189.69 286.58 190.84 285.56
  Z
  M 199.13 291.98
  Q 203.79 291.92 202.92 286.18
  Q 202.62 284.24 200.74 283.67
  Q 199.29 283.22 197.60 283.33
  A 1.11 1.11 0.0 0 0 196.55 284.44
  L 196.50 296.72
  A 0.93 0.93 0.0 0 0 197.29 297.64
  Q 197.68 297.70 198.06 297.61
  Q 198.51 297.49 198.51 297.02
  L 198.54 292.58
  Q 198.54 291.99 199.13 291.98
  Z
  M 211.0235 286.5718
  A 3.18 3.18 0.0 0 0 207.8546 283.3807
  L 207.4946 283.3794
  A 3.18 3.18 0.0 0 0 204.3036 286.5483
  L 204.2765 294.3082
  A 3.18 3.18 0.0 0 0 207.4454 297.4993
  L 207.8054 297.5006
  A 3.18 3.18 0.0 0 0 210.9964 294.3317
  L 211.0235 286.5718
  Z
  M 215.48 291.57
  Q 216.33 291.95 216.55 292.80
  Q 217.13 294.97 218.02 297.23
  Q 218.34 298.02 219.13 297.71
  L 219.55 297.55
  Q 220.08 297.35 219.89 296.82
  L 218.14 291.88
  Q 217.94 291.30 218.36 290.86
  Q 220.19 288.88 219.38 285.92
  Q 219.16 285.09 220.02 285.17
  L 221.01 285.26
  Q 221.91 285.34 221.90 286.26
  L 221.80 296.71
  Q 221.79 297.39 222.46 297.53
  L 223.22 297.69
  Q 224.02 297.85 224.02 297.03
  L 223.98 285.92
  Q 223.97 285.56 224.33 285.49
  L 225.98 285.19
  Q 226.50 285.10 226.48 284.56
  L 226.47 284.28
  Q 226.43 283.36 225.51 283.38
  L 220.72 283.47
  A 1.46 1.45 -70.5 0 0 219.62 284.00
  L 219.21 284.49
  Q 218.83 284.94 218.40 284.53
  Q 216.38 282.63 213.21 283.63
  Q 212.76 283.77 212.76 284.25
  L 212.79 296.72
  A 0.87 0.86 10.2 0 0 213.36 297.53
  Q 213.68 297.65 214.02 297.63
  Q 214.91 297.56 214.89 296.66
  L 214.80 292.02
  A 0.49 0.48 -78.1 0 1 215.48 291.57
  Z
  M 129.31 292.16
  A 0.27 0.27 0.0 0 0 129.57 292.41
  L 180.86 294.74
  A 0.27 0.27 0.0 0 0 181.14 294.47
  L 181.23 289.12
  A 0.27 0.27 0.0 0 0 180.94 288.84
  L 129.53 291.30
  A 0.27 0.27 0.0 0 0 129.27 291.59
  L 129.31 292.16
  Z
  M 282.92 291.57
  A 0.27 0.27 0.0 0 0 282.67 291.29
  L 231.05 288.85
  A 0.27 0.27 0.0 0 0 230.77 289.13
  L 230.94 294.49
  A 0.27 0.27 0.0 0 0 231.22 294.75
  L 282.63 292.38
  A 0.27 0.27 0.0 0 0 282.89 292.13
  L 282.92 291.57
  Z"
/>
<path d="
  M 178.44 139.93
  A 0.28 0.28 0.0 0 0 177.99 139.73
  C 173.95 142.77 169.64 145.52 165.84 148.93
  C 163.37 151.16 160.45 152.60 157.81 154.63
  Q 151.65 159.39 145.91 163.47
  Q 143.02 165.53 145.12 162.67
  Q 157.03 146.52 168.80 129.12
  C 171.12 125.68 174.08 122.05 177.14 119.03
  Q 179.01 117.19 180.53 115.13
  A 0.58 0.58 0.0 0 1 181.48 115.16
  L 200.30 143.14
  Q 200.86 143.97 199.94 143.57
  Q 195.97 141.80 192.41 139.71
  A 1.11 1.09 38.4 0 0 191.11 139.85
  L 174.76 155.02
  Q 172.97 156.69 173.61 154.33
  Q 175.27 148.17 178.25 141.09
  Q 178.49 140.53 178.44 139.93
  Z
  M 173.67 128.86
  C 174.91 126.13 177.21 123.13 177.84 120.31
  Q 178.04 119.43 177.44 120.10
  C 175.75 121.96 171.93 126.12 172.43 128.72
  Q 172.82 130.73 173.67 128.86
  Z"
/>
<path d="
  M 262.66 147.90
  Q 253.72 151.33 245.68 156.17
  Q 244.89 156.65 244.02 156.81
  A 0.62 0.61 -81.8 0 1 243.36 155.92
  C 246.58 149.76 250.20 144.05 253.50 137.74
  Q 257.93 129.23 262.88 121.51
  Q 263.24 120.94 263.72 121.41
  Q 265.67 123.26 267.10 125.81
  Q 271.67 133.92 279.00 144.47
  Q 281.81 148.51 285.09 155.70
  A 0.29 0.29 0.0 0 1 284.65 156.05
  L 273.69 147.86
  A 0.57 0.57 0.0 0 0 272.78 148.26
  C 272.29 153.36 269.98 157.72 268.84 162.60
  Q 267.34 168.98 264.84 175.43
  Q 264.65 175.91 264.31 176.24
  A 0.34 0.34 0.0 0 1 263.74 176.07
  C 262.77 171.54 263.46 167.21 263.07 162.75
  Q 262.43 155.40 263.27 148.37
  Q 263.35 147.64 262.66 147.90
  Z
  M 261.61 130.76
  A 0.30 0.30 0.0 0 0 261.04 130.59
  L 255.18 142.18
  A 0.30 0.30 0.0 0 0 255.63 142.55
  L 260.62 138.58
  A 0.30 0.30 0.0 0 0 260.73 138.38
  L 261.61 130.76
  Z"
/>
<path d="
  M 269.00 238.50
  A 0.31 0.31 0.0 0 1 269.31 238.19
  L 272.64 238.21
  A 11.00 10.42 0.3 0 1 283.58 248.69
  L 283.58 250.33
  A 11.00 10.42 0.3 0 1 272.52 260.69
  L 269.19 260.67
  A 0.31 0.31 0.0 0 1 268.88 260.36
  L 269.00 238.50
  Z"
/>
<path d="
  M 369.73 238.59
  A 0.36 0.36 0.0 0 1 370.09 238.23
  L 372.47 238.23
  A 5.36 4.23 -0.0 0 1 377.83 242.46
  L 377.83 243.84
  A 5.36 4.23 -0.0 0 1 372.47 248.07
  L 370.09 248.07
  A 0.36 0.36 0.0 0 1 369.73 247.71
  L 369.73 238.59
  Z"
/>
<path d="
  M 198.53 285.65
  A 0.49 0.49 0.0 0 1 199.02 285.16
  L 199.18 285.16
  A 2.15 2.01 89.9 0 1 201.19 287.31
  L 201.19 288.03
  A 2.15 2.01 89.9 0 1 199.18 290.18
  L 199.02 290.18
  A 0.49 0.49 0.0 0 1 198.53 289.69
  L 198.53 285.65
  Z"
/>
<rect x="-1.30" y="-5.20" transform="translate(207.64,290.48) rotate(0.4)" width="2.60" height="10.40" rx="1.24"/>
<ellipse cx="0.00" cy="0.00" transform="translate(216.14,287.52) rotate(89.7)" rx="2.42" ry="1.43"/>
</g>
<g fill="#000000">
<path d="
  M 197.93 198.82
  Q 196.09 201.08 198.38 199.28
  Q 200.60 197.55 202.61 195.84
  Q 211.90 187.91 220.89 180.47
  Q 221.02 180.36 221.07 180.22
  Q 221.34 179.53 220.61 179.51
  L 206.31 179.16
  A 0.75 0.75 0.0 0 1 205.57 178.44
  Q 205.48 176.63 206.61 175.28
  Q 209.62 171.66 212.13 167.92
  Q 219.05 157.59 226.03 148.05
  Q 231.84 140.08 237.44 132.18
  Q 238.69 130.42 239.99 128.55
  Q 242.61 124.82 245.02 121.64
  C 249.46 115.77 253.19 109.63 257.82 103.86
  A 1.55 1.55 0.0 0 1 260.36 104.05
  C 263.07 108.69 266.84 113.12 269.42 117.13
  Q 272.52 121.94 275.76 126.54
  C 278.33 130.18 280.44 134.23 283.08 137.75
  Q 285.74 141.27 288.07 144.84
  C 290.18 148.08 292.64 151.01 294.57 154.36
  C 297.77 159.94 301.93 164.81 305.39 170.33
  Q 309.63 177.08 314.25 183.55
  Q 318.88 190.06 323.32 196.70
  Q 327.77 203.36 332.18 210.05
  Q 333.22 211.64 333.80 213.58
  A 0.90 0.90 0.0 0 1 332.94 214.74
  Q 215.28 215.38 100.50 215.86
  Q 98.34 215.87 96.16 215.72
  A 1.40 1.39 -69.0 0 1 95.16 213.46
  Q 101.10 205.98 107.33 198.46
  C 111.45 193.48 115.18 188.18 118.84 182.79
  Q 121.10 179.45 123.48 176.49
  C 128.61 170.10 133.21 163.01 138.04 156.34
  C 145.02 146.72 152.00 136.42 159.30 126.85
  Q 163.89 120.83 168.63 113.74
  Q 173.08 107.09 178.10 100.76
  A 1.83 1.83 0.0 0 1 181.05 100.88
  L 211.13 145.88
  A 1.26 1.22 43.9 0 1 211.18 147.20
  L 187.57 186.81
  A 0.36 0.35 11.0 0 0 187.93 187.34
  Q 196.74 186.03 204.43 186.89
  A 1.17 1.17 0.0 0 1 205.29 188.68
  Q 202.14 193.67 197.93 198.82
  Z
  M 178.44 139.93
  Q 178.49 140.53 178.25 141.09
  Q 175.27 148.17 173.61 154.33
  Q 172.97 156.69 174.76 155.02
  L 191.11 139.85
  A 1.11 1.09 38.4 0 1 192.41 139.71
  Q 195.97 141.80 199.94 143.57
  Q 200.86 143.97 200.30 143.14
  L 181.48 115.16
  A 0.58 0.58 0.0 0 0 180.53 115.13
  Q 179.01 117.19 177.14 119.03
  C 174.08 122.05 171.12 125.68 168.80 129.12
  Q 157.03 146.52 145.12 162.67
  Q 143.02 165.53 145.91 163.47
  Q 151.65 159.39 157.81 154.63
  C 160.45 152.60 163.37 151.16 165.84 148.93
  C 169.64 145.52 173.95 142.77 177.99 139.73
  A 0.28 0.28 0.0 0 1 178.44 139.93
  Z
  M 263.27 148.37
  Q 262.43 155.40 263.07 162.75
  C 263.46 167.21 262.77 171.54 263.74 176.07
  A 0.34 0.34 0.0 0 0 264.31 176.24
  Q 264.65 175.91 264.84 175.43
  Q 267.34 168.98 268.84 162.60
  C 269.98 157.72 272.29 153.36 272.78 148.26
  A 0.57 0.57 0.0 0 1 273.69 147.86
  L 284.65 156.05
  A 0.29 0.29 0.0 0 0 285.09 155.70
  Q 281.81 148.51 279.00 144.47
  Q 271.67 133.92 267.10 125.81
  Q 265.67 123.26 263.72 121.41
  Q 263.24 120.94 262.88 121.51
  Q 257.93 129.23 253.50 137.74
  C 250.20 144.05 246.58 149.76 243.36 155.92
  A 0.62 0.61 -81.8 0 0 244.02 156.81
  Q 244.89 156.65 245.68 156.17
  Q 253.72 151.33 262.66 147.90
  Q 263.35 147.64 263.27 148.37
  Z"
/>
<path d="
  M 177.84 120.31
  C 177.21 123.13 174.91 126.13 173.67 128.86
  Q 172.82 130.73 172.43 128.72
  C 171.93 126.12 175.75 121.96 177.44 120.10
  Q 178.04 119.43 177.84 120.31
  Z"
/>
<path d="
  M 261.61 130.76
  L 260.73 138.38
  A 0.30 0.30 0.0 0 1 260.62 138.58
  L 255.63 142.55
  A 0.30 0.30 0.0 0 1 255.18 142.18
  L 261.04 130.59
  A 0.30 0.30 0.0 0 1 261.61 130.76
  Z"
/>
<path d="
  M 228.77 254.33
  L 228.74 234.42
  A 0.83 0.82 0.3 0 1 229.58 233.60
  L 232.72 233.65
  Q 233.52 233.66 233.52 234.47
  L 233.52 266.07
  A 0.36 0.34 78.5 0 1 233.32 266.39
  Q 233.02 266.52 232.83 266.32
  Q 221.91 254.93 211.40 243.88
  Q 210.64 243.09 210.64 244.18
  L 210.73 264.50
  Q 210.74 265.24 210.00 265.24
  L 206.59 265.25
  Q 205.93 265.25 205.93 264.59
  L 205.96 233.00
  Q 205.96 231.70 206.86 232.64
  L 227.98 254.65
  Q 228.77 255.47 228.77 254.33
  Z"
/>
<path d="
  M 156.49 254.92
  C 156.50 258.25 158.79 260.82 162.16 261.18
  C 168.44 261.86 170.22 257.15 170.16 251.94
  Q 170.05 242.51 170.06 234.45
  Q 170.06 233.80 170.71 233.77
  L 174.00 233.57
  Q 174.69 233.53 174.70 234.23
  Q 174.87 243.99 174.72 253.70
  Q 174.59 262.08 167.37 264.97
  Q 162.52 266.91 157.66 264.39
  C 152.51 261.72 151.38 257.33 151.47 251.80
  Q 151.62 242.58 151.53 234.24
  Q 151.52 233.69 152.07 233.67
  L 155.67 233.61
  Q 156.26 233.60 156.27 234.20
  Q 156.44 244.41 156.49 254.92
  Z"
/>
<path d="
  M 62.75 238.64
  L 62.79 264.67
  A 0.60 0.60 0.0 0 1 62.19 265.27
  L 58.57 265.28
  A 0.60 0.60 0.0 0 1 57.97 264.68
  L 58.05 238.83
  A 0.60 0.60 0.0 0 0 57.45 238.23
  L 51.33 238.22
  A 0.60 0.60 0.0 0 1 50.73 237.63
  L 50.70 234.27
  A 0.60 0.60 0.0 0 1 51.31 233.66
  L 69.41 233.93
  A 0.60 0.60 0.0 0 1 70.00 234.59
  L 69.77 237.06
  A 0.60 0.60 0.0 0 1 69.21 237.61
  L 63.31 238.04
  A 0.60 0.60 0.0 0 0 62.75 238.64
  Z"
/>
<path d="
  M 102.50 251.19
  L 102.41 264.57
  A 0.71 0.71 0.0 0 1 101.68 265.28
  L 98.71 265.16
  A 0.71 0.71 0.0 0 1 98.03 264.45
  L 97.76 234.45
  A 0.71 0.71 0.0 0 1 98.44 233.74
  L 101.71 233.62
  A 0.71 0.71 0.0 0 1 102.45 234.33
  L 102.52 245.31
  A 0.71 0.71 0.0 0 0 103.23 246.01
  L 115.41 246.04
  A 0.71 0.71 0.0 0 0 116.12 245.32
  L 116.05 234.47
  A 0.71 0.71 0.0 0 1 116.73 233.75
  L 119.87 233.66
  A 0.71 0.71 0.0 0 1 120.60 234.37
  L 120.57 264.55
  A 0.71 0.71 0.0 0 1 119.86 265.26
  L 117.05 265.24
  A 0.71 0.71 0.0 0 1 116.34 264.55
  L 116.02 251.24
  A 0.71 0.71 0.0 0 0 115.31 250.55
  L 103.21 250.48
  A 0.71 0.71 0.0 0 0 102.50 251.19
  Z"
/>
<path d="
  M 264.22 234.03
  A 0.32 0.32 0.0 0 1 264.54 233.71
  L 272.83 233.70
  A 15.57 14.83 -0.1 0 1 288.43 248.50
  L 288.43 250.34
  A 15.57 14.83 -0.1 0 1 272.89 265.20
  L 264.60 265.21
  A 0.32 0.32 0.0 0 1 264.28 264.89
  L 264.22 234.03
  Z
  M 269.00 238.50
  L 268.88 260.36
  A 0.31 0.31 0.0 0 0 269.19 260.67
  L 272.52 260.69
  A 11.00 10.42 0.3 0 0 283.58 250.33
  L 283.58 248.69
  A 11.00 10.42 0.3 0 0 272.64 238.21
  L 269.31 238.19
  A 0.31 0.31 0.0 0 0 269.00 238.50
  Z"
/>
<path d="
  M 322.73 238.62
  L 322.74 245.29
  A 0.49 0.49 0.0 0 0 323.23 245.78
  L 334.53 245.82
  A 0.49 0.49 0.0 0 1 335.02 246.31
  L 335.00 249.43
  A 0.49 0.49 0.0 0 1 334.52 249.92
  L 323.23 250.04
  A 0.49 0.49 0.0 0 0 322.75 250.53
  L 322.74 260.23
  A 0.49 0.49 0.0 0 0 323.23 260.72
  L 334.94 260.73
  A 0.49 0.49 0.0 0 1 335.43 261.23
  L 335.40 264.75
  A 0.49 0.49 0.0 0 1 334.91 265.23
  L 318.51 265.27
  A 0.49 0.49 0.0 0 1 318.02 264.78
  L 318.03 234.18
  A 0.49 0.49 0.0 0 1 318.52 233.69
  L 334.94 233.73
  A 0.49 0.49 0.0 0 1 335.43 234.24
  L 335.29 237.72
  A 0.49 0.49 0.0 0 1 334.80 238.19
  L 323.22 238.13
  A 0.49 0.49 0.0 0 0 322.73 238.62
  Z"
/>
<path d="
  M 369.73 253.23
  L 369.76 264.75
  Q 369.76 265.25 369.25 265.25
  L 365.50 265.26
  Q 364.98 265.26 364.98 264.75
  L 364.94 234.26
  Q 364.93 233.72 365.47 233.70
  Q 370.39 233.51 374.74 234.14
  C 380.05 234.90 383.38 239.40 382.41 244.74
  C 381.77 248.25 379.53 250.35 376.28 251.71
  Q 375.66 251.97 376.06 252.51
  L 384.77 264.37
  Q 385.41 265.23 384.34 265.25
  L 380.60 265.31
  Q 379.54 265.33 378.93 264.45
  L 370.94 252.86
  Q 369.73 251.10 369.73 253.23
  Z
  M 369.73 238.59
  L 369.73 247.71
  A 0.36 0.36 0.0 0 0 370.09 248.07
  L 372.47 248.07
  A 5.36 4.23 0.0 0 0 377.83 243.84
  L 377.83 242.46
  A 5.36 4.23 -0.0 0 0 372.47 238.23
  L 370.09 238.23
  A 0.36 0.36 0.0 0 0 369.73 238.59
  Z"
/>
<path d="
  M 190.84 285.56
  C 189.69 286.58 189.97 288.24 191.34 288.93
  Q 192.64 289.59 193.86 290.26
  Q 194.35 290.52 194.50 291.06
  Q 194.90 292.48 194.81 294.16
  C 194.56 298.78 189.00 298.56 187.94 294.64
  Q 187.77 293.99 188.28 293.55
  Q 188.62 293.27 189.06 293.34
  Q 189.74 293.45 189.98 294.09
  Q 190.24 294.79 190.71 295.37
  A 1.07 1.07 0.0 0 0 192.52 295.11
  Q 193.11 293.76 192.70 292.35
  Q 192.53 291.79 192.02 291.50
  C 190.96 290.92 189.55 290.64 188.81 289.64
  Q 187.01 287.19 188.83 284.92
  Q 191.92 281.07 194.99 285.90
  A 0.98 0.98 0.0 0 1 194.36 287.38
  Q 192.78 287.71 192.56 286.19
  A 1.04 1.04 0.0 0 0 190.84 285.56
  Z"
/>
<path d="
  M 198.54 292.58
  L 198.51 297.02
  Q 198.51 297.49 198.06 297.61
  Q 197.68 297.70 197.29 297.64
  A 0.93 0.93 0.0 0 1 196.50 296.72
  L 196.55 284.44
  A 1.11 1.11 0.0 0 1 197.60 283.33
  Q 199.29 283.22 200.74 283.67
  Q 202.62 284.24 202.92 286.18
  Q 203.79 291.92 199.13 291.98
  Q 198.54 291.99 198.54 292.58
  Z
  M 198.53 285.65
  L 198.53 289.69
  A 0.49 0.49 0.0 0 0 199.02 290.18
  L 199.18 290.18
  A 2.15 2.01 89.9 0 0 201.19 288.03
  L 201.19 287.31
  A 2.15 2.01 89.9 0 0 199.18 285.16
  L 199.02 285.16
  A 0.49 0.49 0.0 0 0 198.53 285.65
  Z"
/>
<path d="
  M 210.9964 294.3317
  A 3.18 3.18 0.0 0 1 207.8054 297.5006
  L 207.4454 297.4993
  A 3.18 3.18 0.0 0 1 204.2765 294.3082
  L 204.3036 286.5483
  A 3.18 3.18 0.0 0 1 207.4946 283.3794
  L 207.8546 283.3807
  A 3.18 3.18 0.0 0 1 211.0235 286.5718
  L 210.9964 294.3317
  Z
  M 208.9676 286.5292
  A 1.24 1.24 0.0 0 0 207.7363 285.2805
  L 207.6163 285.2797
  A 1.24 1.24 0.0 0 0 206.3677 286.5110
  L 206.3124 294.4308
  A 1.24 1.24 0.0 0 0 207.5437 295.6795
  L 207.6637 295.6803
  A 1.24 1.24 0.0 0 0 208.9123 294.4490
  L 208.9676 286.5292
  Z"
/>
<path d="
  M 214.80 292.02
  L 214.89 296.66
  Q 214.91 297.56 214.02 297.63
  Q 213.68 297.65 213.36 297.53
  A 0.87 0.86 10.2 0 1 212.79 296.72
  L 212.76 284.25
  Q 212.76 283.77 213.21 283.63
  Q 216.38 282.63 218.40 284.53
  Q 218.83 284.94 219.21 284.49
  L 219.62 284.00
  A 1.46 1.45 -70.5 0 1 220.72 283.47
  L 225.51 283.38
  Q 226.43 283.36 226.47 284.28
  L 226.48 284.56
  Q 226.50 285.10 225.98 285.19
  L 224.33 285.49
  Q 223.97 285.56 223.98 285.92
  L 224.02 297.03
  Q 224.02 297.85 223.22 297.69
  L 222.46 297.53
  Q 221.79 297.39 221.80 296.71
  L 221.90 286.26
  Q 221.91 285.34 221.01 285.26
  L 220.02 285.17
  Q 219.16 285.09 219.38 285.92
  Q 220.19 288.88 218.36 290.86
  Q 217.94 291.30 218.14 291.88
  L 219.89 296.82
  Q 220.08 297.35 219.55 297.55
  L 219.13 297.71
  Q 218.34 298.02 218.02 297.23
  Q 217.13 294.97 216.55 292.80
  Q 216.33 291.95 215.48 291.57
  A 0.49 0.48 -78.1 0 0 214.80 292.02
  Z
  M 216.1527 289.9400
  A 2.42 1.43 89.7 0 0 217.5700 287.5125
  A 2.42 1.43 89.7 0 0 216.1273 285.1000
  A 2.42 1.43 89.7 0 0 214.7100 287.5275
  A 2.42 1.43 89.7 0 0 216.1527 289.9400
  Z"
/>
<path d="
  M 129.31 292.16
  L 129.27 291.59
  A 0.27 0.27 0.0 0 1 129.53 291.30
  L 180.94 288.84
  A 0.27 0.27 0.0 0 1 181.23 289.12
  L 181.14 294.47
  A 0.27 0.27 0.0 0 1 180.86 294.74
  L 129.57 292.41
  A 0.27 0.27 0.0 0 1 129.31 292.16
  Z"
/>
<path d="
  M 282.92 291.57
  L 282.89 292.13
  A 0.27 0.27 0.0 0 1 282.63 292.38
  L 231.22 294.75
  A 0.27 0.27 0.0 0 1 230.94 294.49
  L 230.77 289.13
  A 0.27 0.27 0.0 0 1 231.05 288.85
  L 282.67 291.29
  A 0.27 0.27 0.0 0 1 282.92 291.57
  Z"
/>
</g>
</svg>
